<?xml version="1.0" encoding="UTF-8"?>
<!DOCTYPE svg PUBLIC "-//W3C//DTD SVG 1.1//EN" "http://www.w3.org/Graphics/SVG/1.1/DTD/svg11.dtd">
<svg xmlns="http://www.w3.org/2000/svg" version="1.1" width="8000px" height="8000px" style="shape-rendering:geometricPrecision; text-rendering:geometricPrecision; image-rendering:optimizeQuality; fill-rule:evenodd; clip-rule:evenodd" xmlns:xlink="http://www.w3.org/1999/xlink">
<g><path style="opacity:0.173" fill="#fefefe" d="M -0.5,-0.5 C 2666.17,-0.5 5332.83,-0.5 7999.5,-0.5C 7999.5,2666.17 7999.5,5332.83 7999.5,7999.5C 5332.83,7999.5 2666.17,7999.5 -0.5,7999.5C -0.5,5332.83 -0.5,2666.17 -0.5,-0.5 Z"/></g>
<g><path style="opacity:1" fill="#020101" d="M 2796.5,566.5 C 3599.83,566.333 4403.17,566.5 5206.5,567C 5370.47,581.047 5502.3,652.88 5602,782.5C 5666.43,870.453 5701.1,969.12 5706,1078.5C 5706.5,1596.83 5706.67,2115.17 5706.5,2633.5C 5715.17,2633.5 5723.83,2633.5 5732.5,2633.5C 5732.5,2895.5 5732.5,3157.5 5732.5,3419.5C 5723.83,3419.5 5715.17,3419.5 5706.5,3419.5C 5706.67,4586.5 5706.5,5753.5 5706,6920.5C 5695.1,7093.51 5620.6,7231.35 5482.5,7334C 5400.1,7391.81 5308.43,7424.47 5207.5,7432C 4402.17,7432.67 3596.83,7432.67 2791.5,7432C 2639.17,7419.26 2513.67,7355.09 2415,7239.5C 2339.57,7146.88 2298.9,7040.55 2293,6920.5C 2292.5,5606.83 2292.33,4293.17 2292.5,2979.5C 2283.83,2979.5 2275.17,2979.5 2266.5,2979.5C 2266.5,2815.17 2266.5,2650.83 2266.5,2486.5C 2275.17,2486.5 2283.83,2486.5 2292.5,2486.5C 2292.5,2401.83 2292.5,2317.17 2292.5,2232.5C 2283.83,2232.5 2275.17,2232.5 2266.5,2232.5C 2266.5,2148.17 2266.5,2063.83 2266.5,1979.5C 2275.17,1979.5 2283.83,1979.5 2292.5,1979.5C 2292.33,1679.17 2292.5,1378.83 2293,1078.5C 2303.88,905.537 2378.38,767.703 2516.5,665C 2600.51,605.828 2693.85,572.995 2796.5,566.5 Z"/></g>
<g><path style="opacity:1" fill="#db213c" d="M 2804.5,619.5 C 3599.17,619.333 4393.83,619.5 5188.5,620C 5356.33,629.799 5486.49,704.299 5579,843.5C 5622.49,912.864 5646.83,988.531 5652,1070.5C 5652.67,3021.5 5652.67,4972.5 5652,6923.5C 5640.74,7080.91 5571.24,7205.07 5443.5,7296C 5366.54,7347.65 5281.54,7375.32 5188.5,7379C 4393.83,7379.67 3599.17,7379.67 2804.5,7379C 2652.73,7368.71 2530.9,7303.55 2439,7183.5C 2382.98,7106.12 2352.31,7019.45 2347,6923.5C 2346,4968.16 2346.34,3012.82 2348,1057.5C 2362.64,920.354 2423.14,808.52 2529.5,722C 2610.41,659.524 2702.07,625.357 2804.5,619.5 Z"/></g>
<g><path style="opacity:1" fill="#000000" d="M 2801.5,659.5 C 3600.17,659.333 4398.83,659.5 5197.5,660C 5346.83,672.377 5462.67,740.544 5545,864.5C 5584.54,927.135 5606.88,995.469 5612,1069.5C 5612.67,3022.83 5612.67,4976.17 5612,6929.5C 5598.33,7073.74 5532.17,7186.57 5413.5,7268C 5347.77,7310.24 5275.77,7333.91 5197.5,7339C 4394.15,7340 3590.82,7339.66 2787.5,7338C 2644.21,7321.89 2533.04,7254.06 2454,7134.5C 2415.29,7071.69 2392.95,7003.35 2387,6929.5C 2386.33,4976.17 2386.33,3022.83 2387,1069.5C 2400.73,923.799 2467.9,810.299 2588.5,729C 2653.69,687.791 2724.69,664.624 2801.5,659.5 Z"/></g>
<g><path style="opacity:1" fill="#2dbbe7" d="M 3372.5,826.5 C 3088.17,1110.5 2803.83,1394.5 2519.5,1678.5C 2519.02,1474.49 2519.52,1270.49 2521,1066.5C 2534.71,967.186 2583.54,890.686 2667.5,837C 2710.87,810.878 2757.87,796.212 2808.5,793C 2987.83,792.333 3167.17,792.333 3346.5,793C 3365.35,796.042 3374.02,807.208 3372.5,826.5 Z"/></g>
<g><path style="opacity:1" fill="#7ce6fe" d="M 5375.5,870.5 C 4423.83,1822.83 3471.83,2774.83 2519.5,3726.5C 2519.5,3043.83 2519.5,2361.17 2519.5,1678.5C 2803.83,1394.5 3088.17,1110.5 3372.5,826.5C 3367.97,870.268 3375.8,911.602 3396,950.5C 3429.43,1006.87 3478.93,1038.7 3544.5,1046C 3847.83,1046.67 4151.17,1046.67 4454.5,1046C 4526.28,1037.51 4578.12,1001.01 4610,936.5C 4619.1,915.418 4624.44,893.418 4626,870.5C 4626.33,851.5 4626.67,832.5 4627,813.5C 4630.21,801.975 4637.71,795.142 4649.5,793C 4827.83,792.333 5006.17,792.333 5184.5,793C 5257.72,796.326 5321.39,822.159 5375.5,870.5 Z"/></g>
<g><path style="opacity:1" fill="#1d1d1d" d="M 3546.5,835.5 C 3573.34,836.17 3586.84,849.837 3587,876.5C 3581.23,899.651 3566.4,909.817 3542.5,907C 3521.72,899.866 3512.88,885.366 3516,863.5C 3520.47,847.865 3530.64,838.532 3546.5,835.5 Z"/></g>
<g><path style="opacity:1" fill="#1d1d1d" d="M 3860.5,835.5 C 3953.17,835.333 4045.83,835.5 4138.5,836C 4163.15,843.794 4172.32,860.294 4166,885.5C 4160.75,897.045 4151.92,904.212 4139.5,907C 4045.5,907.667 3951.5,907.667 3857.5,907C 3834.87,898.249 3826.71,882.082 3833,858.5C 3838.44,846.219 3847.6,838.553 3860.5,835.5 Z"/></g>
<g><path style="opacity:1" fill="#2dbce8" d="M 5375.5,870.5 C 5430.25,918.631 5463.75,978.964 5476,1051.5C 5479.15,1079.74 5480.32,1108.07 5479.5,1136.5C 4492.83,2122.83 3506.17,3109.17 2519.5,4095.5C 2519.5,3972.5 2519.5,3849.5 2519.5,3726.5C 3471.83,2774.83 4423.83,1822.83 5375.5,870.5 Z"/></g>
<g><path style="opacity:1" fill="#7ce6fe" d="M 5479.5,1136.5 C 5479.5,1592.83 5479.5,2049.17 5479.5,2505.5C 4492.83,3491.83 3506.17,4478.17 2519.5,5464.5C 2519.5,5008.17 2519.5,4551.83 2519.5,4095.5C 3506.17,3109.17 4492.83,2122.83 5479.5,1136.5 Z"/></g>
<g><path style="opacity:1" fill="#2dbce8" d="M 5479.5,2505.5 C 5479.5,2668.83 5479.5,2832.17 5479.5,2995.5C 4492.83,3981.83 3506.17,4968.17 2519.5,5954.5C 2519.5,5791.17 2519.5,5627.83 2519.5,5464.5C 3506.17,4478.17 4492.83,3491.83 5479.5,2505.5 Z"/></g>
<g><path style="opacity:1" fill="#7de7fe" d="M 5479.5,2995.5 C 5479.5,3223.5 5479.5,3451.5 5479.5,3679.5C 4492.83,4665.83 3506.17,5652.17 2519.5,6638.5C 2519.5,6410.5 2519.5,6182.5 2519.5,5954.5C 3506.17,4968.17 4492.83,3981.83 5479.5,2995.5 Z"/></g>
<g><path style="opacity:1" fill="#2dbce8" d="M 5479.5,3679.5 C 5479.5,3885.17 5479.5,4090.83 5479.5,4296.5C 4531.47,5244.19 3583.47,6191.86 2635.5,7139.5C 2565.96,7082.44 2527.46,7008.77 2520,6918.5C 2519.5,6825.17 2519.33,6731.83 2519.5,6638.5C 3506.17,5652.17 4492.83,4665.83 5479.5,3679.5 Z"/></g>
<g><path style="opacity:1" fill="#7ce6fe" d="M 5479.5,4296.5 C 5479.5,4978.83 5479.5,5661.17 5479.5,6343.5C 5192.03,6630.47 4904.7,6917.63 4617.5,7205C 4016.17,7205.5 3414.83,7205.67 2813.5,7205.5C 2746.86,7202.63 2687.52,7180.63 2635.5,7139.5C 3583.47,6191.86 4531.47,5244.19 5479.5,4296.5 Z"/></g>
<g><path style="opacity:1" fill="#2dbbe7" d="M 5479.5,6343.5 C 5479.67,6535.17 5479.5,6726.83 5479,6918.5C 5469.34,7024.04 5420.18,7105.21 5331.5,7162C 5286.55,7188.74 5237.88,7203.41 5185.5,7206C 4394.67,7206.83 3604,7206.67 2813.5,7205.5C 3414.83,7205.67 4016.17,7205.5 4617.5,7205C 4904.7,6917.63 5192.03,6630.47 5479.5,6343.5 Z"/></g>
</svg>
